<svg width="91" height="92" viewBox="0 0 91 92" fill="none" xmlns="http://www.w3.org/2000/svg">
<path d="M1.28969 54.4848C-0.0167005 47.7502 0.217039 41.0549 2.00224 34.3924C2.80869 31.3827 3.93011 28.4478 5.37065 25.608C8.55561 19.3302 12.9203 14.1152 18.4648 9.96283C24.0093 5.81051 30.1668 3.08593 36.9395 1.78018C43.7123 0.47443 50.423 0.721888 57.0765 2.50469C60.0237 3.29439 62.9497 4.41342 65.8609 5.87311C72.2102 9.07721 77.461 13.4515 81.6133 18.996C85.7656 24.5405 88.495 30.6801 89.8014 37.4147C91.1078 44.1493 90.874 50.8446 89.0888 57.5071C88.2991 60.4543 87.1801 63.3802 85.7204 66.2915C82.5355 72.5693 78.1707 77.7844 72.6262 81.9367C67.0931 86.0825 60.9309 88.8249 54.1485 90.1664C47.3662 91.5078 40.6507 91.2783 33.9882 89.4931C31.041 88.7034 28.1151 87.5843 25.2038 86.1246C18.8546 82.9205 13.6086 78.5284 9.4658 72.9482C5.32959 67.3793 2.60502 61.2218 1.28969 54.4848ZM52.089 81.6697C57.5781 80.5464 62.5861 78.2892 67.1446 74.8873C71.7031 71.4855 75.262 67.2414 77.8238 62.1463C78.8965 60.1077 79.767 57.8235 80.4442 55.296C81.8896 49.9018 82.0909 44.4709 81.0367 39.0099C79.9938 33.5424 77.8015 28.5422 74.4686 24.0118C71.1382 19.4724 66.9656 15.9327 61.933 13.3877C59.8944 12.3149 57.6102 11.4445 55.0828 10.7672C49.7599 9.34098 44.3731 9.1898 38.9197 10.3226C33.4664 11.4555 28.4721 13.6972 23.9321 17.0658C19.3832 20.4319 15.8291 24.6581 13.2673 29.7532C12.1946 31.7918 11.3241 34.076 10.6469 36.6035C9.20149 41.9977 8.99544 47.4465 10.0401 52.9432C11.0847 58.4399 13.2722 63.4579 16.5937 67.9949C19.9242 72.5342 24.0968 76.074 29.1294 78.619C31.168 79.6917 33.4164 80.5527 35.8724 81.2107C41.2042 82.6394 46.6089 82.7953 52.089 81.6697ZM62.1416 68.9809C58.6686 71.5824 54.8048 73.2847 50.5746 74.104C46.3354 74.9208 42.1528 74.7764 38.0178 73.6685C35.8476 73.0869 34.0736 72.4201 32.6933 71.677C28.7118 69.7104 25.4251 66.9727 22.8445 63.4575C20.2525 59.9488 18.5526 56.076 17.7357 51.8369C16.9189 47.5977 17.0729 43.3794 18.2 39.1729C18.7623 37.0742 19.4291 35.3001 20.1914 33.8484L28.224 37.9151C27.6288 39.0288 27.1294 40.3212 26.7345 41.7948C25.5524 46.2066 25.8432 50.5154 27.6119 54.7033C29.3805 58.8912 32.3106 62.0311 36.4158 64.1074C38.0207 64.8342 39.2148 65.3073 39.9829 65.5131C44.3322 66.6785 48.6203 66.2864 52.8561 64.3391C57.0918 62.3919 60.2747 59.301 62.387 55.0618L70.2926 59.2094C68.3224 63.1325 65.6122 66.3883 62.1416 68.9809ZM27.0999 25.6775C27.5497 23.9985 28.5286 22.7388 30.0275 21.8961C31.5264 21.0533 33.1174 20.867 34.8054 21.3193C36.4844 21.7692 37.7441 22.7481 38.5868 24.247C39.4296 25.7459 39.6254 27.3012 39.1923 28.9177C38.7424 30.5967 37.7683 31.8385 36.279 32.6455C34.7897 33.4526 33.2749 33.6401 31.7298 33.2261C29.9079 32.738 28.5672 31.7757 27.7143 30.3506C26.8434 28.9208 26.6476 27.3655 27.0999 25.6775ZM62.0426 43.2724C62.4924 41.5934 63.4939 40.3206 65.0381 39.4517C66.5823 38.5828 68.1603 38.3739 69.7768 38.807C71.5272 39.2761 72.8131 40.3002 73.6277 41.8682C74.4424 43.4361 74.6376 45.0296 74.2045 46.646C73.7355 48.3965 72.7161 49.6645 71.1553 50.4524C69.5945 51.2402 68.0083 51.4087 66.3918 50.9755C64.7128 50.5256 63.4531 49.5468 62.6104 48.0479C61.7879 46.5448 61.5927 44.9514 62.0426 43.2724Z" fill="#1F2020"/>
</svg>
