<svg width="91" height="91" viewBox="0 0 91 91" fill="none" xmlns="http://www.w3.org/2000/svg">
<path d="M20.2265 82.7333C14.5439 78.8931 9.97647 73.9926 6.52774 68.0192C4.9698 65.3208 3.68714 62.4527 2.69701 59.4264C0.508484 52.7362 -0.0958558 45.964 0.883993 39.1099C1.86384 32.2559 4.28565 25.9786 8.14479 20.27C12.0039 14.5615 16.9171 9.99528 22.8752 6.55541C25.5143 5.0317 28.3712 3.75593 31.4585 2.73148C38.2064 0.511808 45.0057 -0.10415 51.8566 0.883615C58.7075 1.87138 64.9743 4.28536 70.6569 8.12557C76.3396 11.9658 80.907 16.8662 84.3557 22.8396C85.8813 25.482 87.1593 28.3421 88.1864 31.4324C90.375 38.1227 90.9793 44.8948 89.9994 51.7489C89.023 58.5903 86.6104 64.8836 82.7698 70.6242C78.9291 76.3648 74.0251 80.947 68.0591 84.3915C65.42 85.9152 62.5631 87.191 59.4757 88.2154C52.7279 90.4351 45.9193 91.035 39.05 90.0152C32.1932 88.9988 25.9172 86.5688 20.2265 82.7333ZM69.8143 62.5167C72.3131 58.8106 73.8864 54.7207 74.5218 50.2435C75.1572 45.7663 74.7616 41.3505 73.326 36.98L64.8679 39.728C66.4198 44.4477 66.325 49.104 64.5927 53.7127C62.8603 58.3215 59.9502 61.7952 55.8715 64.1501C54.552 64.9119 53.3184 65.4533 52.1674 65.7869C47.6172 67.3249 43.1022 67.1879 38.6224 65.3756C34.1426 63.5634 30.6868 60.5514 28.2552 56.3396C27.4924 55.0184 26.8945 53.6874 26.4536 52.3512L17.9955 55.0993C18.6367 57.0779 19.4572 58.9422 20.4742 60.7038C22.6886 64.5393 25.665 67.6999 29.4035 70.1857C33.1419 72.6716 37.231 74.2503 41.6741 74.9093C46.1172 75.5683 50.5139 75.1864 54.8802 73.7546C56.7929 73.152 58.5993 72.3653 60.2948 71.3865C64.1427 69.1862 67.3075 66.2273 69.8143 62.5167ZM26.6023 37.5748C25.7331 36.0695 24.453 35.0897 22.7699 34.6308C21.0868 34.1719 19.4621 34.4053 17.8946 35.3103C16.4551 36.1414 15.4907 37.3708 14.997 38.9904C14.5032 40.61 14.6873 42.1478 15.5194 43.5891C16.3885 45.0945 17.6687 46.0743 19.3518 46.5332C21.0303 46.984 22.6596 46.7587 24.2271 45.8537C25.6106 45.0549 26.5682 43.8508 27.0999 42.2413C27.6487 40.6433 27.476 39.0882 26.6023 37.5748ZM67.8164 23.965C66.9473 22.4596 65.6832 21.4706 64.032 20.9933C62.3855 20.5239 60.8042 20.7216 59.2927 21.5943C57.8532 22.4254 56.8913 23.696 56.4026 25.3981C55.9218 27.0957 56.1143 28.7034 56.988 30.2168C57.8571 31.7221 59.112 32.6952 60.7447 33.1405C62.3773 33.5858 63.9767 33.3456 65.5442 32.4406C66.9837 31.6095 67.9481 30.3802 68.4419 28.7606C68.9356 27.1409 68.7225 25.5344 67.8164 23.965Z" fill="#1F2020"/>
</svg>
