<svg width="90" height="90" viewBox="0 0 90 90" fill="none" xmlns="http://www.w3.org/2000/svg">
    <path d="M90 47.3652H53.6723L85.0842 65.5136L82.7654 69.5019L51.3535 51.4772L69.5019 82.889L65.5136 85.2078L47.3652 53.7959V89.9691H42.7276V53.7959L24.4555 85.2387L20.4672 82.92L38.6156 51.5081L7.20371 69.5328L4.88492 65.5445L36.2968 47.3961H0V42.7585H36.2968L4.88492 24.5792L7.20371 20.5909L38.6156 38.6156L20.4672 7.20371L24.4555 4.88492L42.7276 36.2968V0H47.3652V36.2968L65.5445 4.88492L69.5328 7.20371L51.3844 38.6156L82.7963 20.5909L85.1151 24.5792L53.7032 42.7276H90V47.3652Z" fill="#EAEAEA"/>
</svg>